<svg width="10" height="10" viewBox="0 0 10 10" fill="none" xmlns="http://www.w3.org/2000/svg">
<g clip-path="url(#clip0_635_13026)">
<path d="M5.00016 9.16634C4.42377 9.16634 3.88211 9.0569 3.37516 8.83801C2.86822 8.61912 2.42725 8.32231 2.05225 7.94759C1.67725 7.57287 1.38044 7.1319 1.16183 6.62467C0.943219 6.11745 0.833774 5.57579 0.833497 4.99967C0.833219 4.42356 0.942663 3.8819 1.16183 3.37467C1.381 2.86745 1.6778 2.42648 2.05225 2.05176C2.42669 1.67704 2.86766 1.38023 3.37516 1.16134C3.88266 0.942452 4.42433 0.833008 5.00016 0.833008C5.45155 0.833008 5.87864 0.89898 6.28141 1.03092C6.68419 1.16287 7.05572 1.3469 7.396 1.58301L6.79183 2.19759C6.52794 2.03092 6.24669 1.90079 5.94808 1.80717C5.64947 1.71356 5.3335 1.66662 5.00016 1.66634C4.07655 1.66634 3.29002 1.99106 2.64058 2.64051C1.99114 3.28995 1.66655 4.07634 1.66683 4.99967C1.66711 5.92301 1.99183 6.70954 2.641 7.35926C3.29016 8.00898 4.07655 8.33356 5.00016 8.33301C5.92377 8.33245 6.7103 8.00787 7.35975 7.35926C8.00919 6.71065 8.33377 5.92412 8.3335 4.99967C8.3335 4.87467 8.32655 4.74967 8.31266 4.62467C8.29877 4.49967 8.27794 4.37815 8.25016 4.26009L8.92725 3.58301C9.00364 3.80523 9.06266 4.0344 9.10433 4.27051C9.146 4.50662 9.16683 4.74967 9.16683 4.99967C9.16683 5.57606 9.05739 6.11773 8.8385 6.62467C8.61961 7.13162 8.3228 7.57259 7.94808 7.94759C7.57336 8.32259 7.13239 8.61953 6.62516 8.83842C6.11794 9.05731 5.57627 9.16662 5.00016 9.16634ZM4.41683 6.91634L2.646 5.14551L3.22933 4.56217L4.41683 5.74967L8.5835 1.57259L9.16683 2.15592L4.41683 6.91634Z" fill="#F8F8F8"/>
</g>
<defs>
<clipPath id="clip0_635_13026">
<rect width="10" height="10" fill="white"/>
</clipPath>
</defs>
</svg>
