<svg width="21" height="21" viewBox="0 0 21 21" fill="none" xmlns="http://www.w3.org/2000/svg">
<path d="M4.05036 17.8686H5.82813C6.14295 17.8686 6.40702 17.9753 6.62036 18.1886C6.83369 18.4019 6.93999 18.6656 6.93925 18.9797C6.9385 19.2938 6.83184 19.5578 6.61925 19.7719C6.40665 19.986 6.14295 20.0923 5.82813 20.0908H1.38369C1.06888 20.0908 0.805175 19.9841 0.592583 19.7708C0.37999 19.5575 0.273324 19.2938 0.272583 18.9797V14.5353C0.272583 14.2204 0.37925 13.9567 0.592583 13.7441C0.805916 13.5316 1.06962 13.4249 1.38369 13.4241C1.69777 13.4234 1.96184 13.5301 2.17591 13.7441C2.38999 13.9582 2.49629 14.2219 2.4948 14.5353V16.313L5.16147 13.6464C5.36517 13.4427 5.62443 13.3408 5.93925 13.3408C6.25406 13.3408 6.51332 13.4427 6.71702 13.6464C6.92073 13.8501 7.02258 14.1093 7.02258 14.4241C7.02258 14.739 6.92073 14.9982 6.71702 15.2019L4.05036 17.8686ZM16.4948 17.8686L13.8281 15.2019C13.6244 14.9982 13.5226 14.739 13.5226 14.4241C13.5226 14.1093 13.6244 13.8501 13.8281 13.6464C14.0318 13.4427 14.2911 13.3408 14.6059 13.3408C14.9207 13.3408 15.18 13.4427 15.3837 13.6464L18.0503 16.313V14.5353C18.0503 14.2204 18.157 13.9567 18.3703 13.7441C18.5837 13.5316 18.8474 13.4249 19.1615 13.4241C19.4755 13.4234 19.7396 13.5301 19.9537 13.7441C20.1678 13.9582 20.274 14.2219 20.2726 14.5353V18.9797C20.2726 19.2945 20.1659 19.5586 19.9526 19.7719C19.7392 19.9853 19.4755 20.0915 19.1615 20.0908H14.717C14.4022 20.0908 14.1385 19.9841 13.9259 19.7708C13.7133 19.5575 13.6066 19.2938 13.6059 18.9797C13.6052 18.6656 13.7118 18.4019 13.9259 18.1886C14.14 17.9753 14.4037 17.8686 14.717 17.8686H16.4948ZM2.4948 3.8686V5.64637C2.4948 5.96119 2.38814 6.22526 2.1748 6.43859C1.96147 6.65193 1.69777 6.75822 1.38369 6.75748C1.06962 6.75674 0.805916 6.65007 0.592583 6.43748C0.37925 6.22489 0.272583 5.96119 0.272583 5.64637V1.20193C0.272583 0.887116 0.37925 0.623413 0.592583 0.41082C0.805916 0.198228 1.06962 0.0915611 1.38369 0.0908203H5.82813C6.14295 0.0908203 6.40702 0.197487 6.62036 0.41082C6.83369 0.624153 6.93999 0.887857 6.93925 1.20193C6.9385 1.516 6.83184 1.78008 6.61925 1.99415C6.40665 2.20823 6.14295 2.31452 5.82813 2.31304H4.05036L6.71702 4.97971C6.92073 5.18341 7.02258 5.44267 7.02258 5.75748C7.02258 6.0723 6.92073 6.33156 6.71702 6.53526C6.51332 6.73896 6.25406 6.84082 5.93925 6.84082C5.62443 6.84082 5.36517 6.73896 5.16147 6.53526L2.4948 3.8686ZM18.0503 3.8686L15.3837 6.53526C15.18 6.73896 14.9207 6.84082 14.6059 6.84082C14.2911 6.84082 14.0318 6.73896 13.8281 6.53526C13.6244 6.33156 13.5226 6.0723 13.5226 5.75748C13.5226 5.44267 13.6244 5.18341 13.8281 4.97971L16.4948 2.31304H14.717C14.4022 2.31304 14.1385 2.20674 13.9259 1.99415C13.7133 1.78156 13.6066 1.51749 13.6059 1.20193C13.6052 0.886375 13.7118 0.622672 13.9259 0.41082C14.14 0.198969 14.4037 0.0923018 14.717 0.0908203H19.1615C19.4763 0.0908203 19.7403 0.197487 19.9537 0.41082C20.167 0.624153 20.2733 0.887857 20.2726 1.20193V5.64637C20.2726 5.96119 20.1659 6.22526 19.9526 6.43859C19.7392 6.65193 19.4755 6.75822 19.1615 6.75748C18.8474 6.75674 18.5837 6.65007 18.3703 6.43748C18.157 6.22489 18.0503 5.96119 18.0503 5.64637V3.8686Z" fill="#6808D0"/>
</svg>
