<svg width="16" height="20" viewBox="0 0 16 20" fill="none" xmlns="http://www.w3.org/2000/svg">
<path d="M8.8 3.57143V0H0.8C0.587827 0 0.384344 0.0752549 0.234315 0.209209C0.0842856 0.343164 0 0.524845 0 0.714286V8.57143H16V0.714286C16 0.524845 15.9157 0.343164 15.7657 0.209209C15.6157 0.0752549 15.4122 0 15.2 0H13.6V5C13.6 5.18944 13.5157 5.37112 13.3657 5.50508C13.2157 5.63903 13.0122 5.71429 12.8 5.71429C12.5878 5.71429 12.3843 5.63903 12.2343 5.50508C12.0843 5.37112 12 5.18944 12 5V0H10.4V3.57143C10.4 3.76087 10.3157 3.94255 10.1657 4.0765C10.0157 4.21046 9.81217 4.28571 9.6 4.28571C9.38783 4.28571 9.18434 4.21046 9.03431 4.0765C8.88428 3.94255 8.8 3.76087 8.8 3.57143ZM16 10H0V11.9643C0 12.2691 0.0672511 12.571 0.197913 12.8527C0.328576 13.1343 0.52009 13.3902 0.761522 13.6058C1.00295 13.8213 1.28958 13.9923 1.60502 14.109C1.92047 14.2257 2.25856 14.2857 2.6 14.2857H5.6V17.8571C5.6 18.4255 5.85286 18.9705 6.30294 19.3724C6.75303 19.7742 7.36348 20 8 20C8.63652 20 9.24697 19.7742 9.69706 19.3724C10.1471 18.9705 10.4 18.4255 10.4 17.8571V14.2857H13.4C13.7414 14.2857 14.0795 14.2257 14.395 14.109C14.7104 13.9923 14.997 13.8213 15.2385 13.6058C15.4799 13.3902 15.6714 13.1343 15.8021 12.8527C15.9327 12.571 16 12.2691 16 11.9643V10Z" fill="#6808D0"/>
</svg>
