<svg width="21" height="21" viewBox="0 0 21 21" fill="none" xmlns="http://www.w3.org/2000/svg">
<path d="M16.4706 1.75863C16.4708 1.35314 16.6454 0.963272 16.9581 0.669808C17.2709 0.376343 17.6978 0.201781 18.1505 0.182293C18.6032 0.162806 19.0469 0.299889 19.3896 0.565134C19.7324 0.83038 19.948 1.20346 19.9918 1.60706L20 1.75863L20 18.6007C19.9998 19.0062 19.8252 19.3961 19.5125 19.6896C19.1997 19.983 18.7728 20.1576 18.3201 20.1771C17.8674 20.1966 17.4237 20.0595 17.0809 19.7942C16.7382 19.529 16.5226 19.1559 16.4788 18.7523L16.4706 18.6007L16.4706 1.75863ZM8.23529 1.75863C8.23529 1.33987 8.42122 0.938261 8.75217 0.642151C9.08311 0.346041 9.53197 0.179688 10 0.179688C10.468 0.179688 10.9169 0.346041 11.2478 0.642151C11.5788 0.938261 11.7647 1.33987 11.7647 1.75863L11.7647 18.6007C11.7647 19.0195 11.5788 19.4211 11.2478 19.7172C10.9169 20.0133 10.468 20.1797 10 20.1797C9.53197 20.1797 9.08311 20.0133 8.75216 19.7172C8.42122 19.4211 8.23529 19.0195 8.23529 18.6007L8.23529 1.75863ZM2.19669e-07 1.75863C2.24663e-07 1.33987 0.185924 0.938261 0.516871 0.642151C0.847817 0.346041 1.29668 0.179688 1.76471 0.179688C2.23274 0.179688 2.6816 0.346041 3.01254 0.642151C3.34349 0.938261 3.52941 1.33987 3.52941 1.75863L3.52941 18.6007C3.52941 19.0195 3.34349 19.4211 3.01254 19.7172C2.6816 20.0133 2.23273 20.1797 1.76471 20.1797C1.29668 20.1797 0.847817 20.0133 0.51687 19.7172C0.185924 19.4211 1.38351e-08 19.0195 1.88288e-08 18.6007L2.19669e-07 1.75863Z" fill="white"/>
</svg>
