<svg width="29" height="29" viewBox="0 0 29 29" fill="none" xmlns="http://www.w3.org/2000/svg">
<path d="M14.1809 28.5449C7.3594 28.5449 0 24.2661 0 14.8774C0 5.48868 7.3594 1.20996 14.1809 1.20996C17.9706 1.20996 21.4669 2.4569 24.0586 4.73074C26.8704 7.22462 28.3618 10.7454 28.3618 14.8774C28.3618 19.0094 26.8704 22.5058 24.0586 24.9996C21.4669 27.2735 17.9462 28.5449 14.1809 28.5449Z" fill="url(#paint0_radial_635_7590)"/>
<path d="M25.8901 6.75293C27.1932 8.85561 27.8729 11.3593 27.8729 14.1441C27.8729 18.2761 26.3815 21.7725 23.5698 24.2663C20.9781 26.5402 17.4573 27.8116 13.692 27.8116C9.2764 27.8116 4.6456 26.0145 1.91211 22.2028C4.54291 26.5206 9.49156 28.5451 14.181 28.5451C17.9463 28.5451 21.4671 27.2737 24.0588 24.9998C26.8705 22.506 28.3619 19.0096 28.3619 14.8776C28.3619 11.7627 27.5135 8.99498 25.8901 6.75293Z" fill="#EB8F00"/>
<path d="M10.5136 12.8725L10.4647 12.9214L10.3424 13.0437C10.2935 13.0926 10.2446 13.117 10.1713 13.1904C10.093 13.2539 10.0123 13.3102 9.92676 13.3615C9.82896 13.4104 9.73116 13.4838 9.63336 13.5327C9.53556 13.5816 9.41331 13.6305 9.29106 13.6794C9.17126 13.7234 9.04901 13.7552 8.92431 13.7772C8.79473 13.7992 8.66515 13.8065 8.53312 13.8016H8.31307C8.25439 13.8065 8.19571 13.7967 8.14192 13.7772C8.01723 13.7552 7.89498 13.7234 7.77517 13.6794C7.65781 13.6402 7.5429 13.5913 7.43287 13.5327C7.33508 13.4838 7.23728 13.4104 7.13948 13.3615C6.96833 13.2393 6.82163 13.117 6.72383 13.0437L6.57713 12.897L6.52823 12.8481C6.21283 12.5645 5.74095 12.5449 5.40354 12.7992C5.16638 12.985 5.08569 13.3077 5.20794 13.5816L5.25684 13.6549C5.28373 13.7234 5.31796 13.7869 5.35464 13.8505C5.50378 14.1023 5.68471 14.3322 5.89254 14.5351C6.03679 14.6769 6.19327 14.8089 6.35708 14.9263C6.55024 15.0608 6.75317 15.1757 6.96833 15.2686C7.20305 15.3762 7.44999 15.4569 7.70182 15.5131L8.11747 15.5865C8.19082 15.5865 8.28862 15.6109 8.31307 15.6109H8.50867C8.78006 15.6109 9.04901 15.5865 9.31551 15.5376C9.56979 15.4862 9.81429 15.4031 10.049 15.2931C10.2642 15.2001 10.4671 15.0852 10.6603 14.9508C10.8314 14.8407 10.9879 14.7087 11.1248 14.5596C11.2446 14.4495 11.3522 14.3273 11.4426 14.1928C11.4915 14.1439 11.516 14.0706 11.5649 14.0217C11.6138 13.9728 11.6382 13.9239 11.6627 13.875C11.7043 13.8163 11.7385 13.7503 11.7605 13.6794L11.7849 13.6305C11.9365 13.2882 11.7801 12.8847 11.4378 12.7332C11.4084 12.7209 11.3766 12.7087 11.3448 12.7014C11.0588 12.5767 10.7263 12.6451 10.5136 12.8725Z" fill="#422B0D"/>
<path d="M21.4916 12.8725L21.4427 12.9214L21.3204 13.0437C21.2715 13.0926 21.2226 13.117 21.1493 13.1904C21.071 13.2539 20.9904 13.3102 20.9048 13.3615C20.807 13.4104 20.7092 13.4838 20.6114 13.5327C20.5136 13.5816 20.3913 13.6305 20.2691 13.6794C20.1493 13.7234 20.027 13.7552 19.9023 13.7772C19.7728 13.7992 19.6432 13.8065 19.5111 13.8016H19.2911C19.2324 13.8041 19.1762 13.7943 19.1199 13.7772C18.9953 13.7552 18.873 13.7234 18.7532 13.6794C18.6358 13.6402 18.5209 13.5913 18.4109 13.5327C18.3131 13.4838 18.2153 13.4104 18.1175 13.3615C17.9464 13.2393 17.7997 13.117 17.7019 13.0437L17.5552 12.897L17.5063 12.8481C17.1909 12.5645 16.719 12.5449 16.3816 12.7992C16.1444 12.985 16.0637 13.3077 16.186 13.5816L16.2349 13.6549C16.2618 13.7234 16.296 13.7869 16.3327 13.8505C16.4818 14.1023 16.6627 14.3322 16.8706 14.5351C17.0148 14.6769 17.1713 14.8089 17.3351 14.9263C17.5283 15.0608 17.7312 15.1757 17.9464 15.2686C18.1811 15.3762 18.428 15.4569 18.6798 15.5131L19.0955 15.5865C19.1688 15.5865 19.2666 15.6109 19.2911 15.6109H19.4867C19.7581 15.6109 20.027 15.5865 20.2935 15.5376C20.5478 15.4862 20.7923 15.4031 21.027 15.2931C21.2422 15.2001 21.4451 15.0852 21.6383 14.9508C21.8143 14.8456 21.9708 14.7136 22.1028 14.5596C22.2226 14.4495 22.3302 14.3273 22.4207 14.1928C22.4696 14.1439 22.494 14.0706 22.5429 14.0217C22.5918 13.9728 22.6163 13.9239 22.6407 13.875C22.6823 13.8163 22.7165 13.7503 22.7385 13.6794L22.763 13.6305C22.9146 13.2882 22.7581 12.8847 22.4158 12.7332C22.3864 12.7209 22.3547 12.7087 22.3229 12.7014C22.0368 12.5767 21.7043 12.6451 21.4916 12.8725Z" fill="#422B0D"/>
<path d="M17.5062 4.78042C17.4231 4.73397 17.3326 4.69974 17.2373 4.68263C17.1395 4.63373 17.0172 4.60928 16.9194 4.56038L16.406 4.41368C16.2104 4.34033 15.9903 4.29143 15.7947 4.21808C15.4035 4.09583 14.9146 3.77798 14.6701 4.34033C14.604 4.46013 14.5698 4.59461 14.5723 4.73152C14.5723 4.92712 14.719 5.02492 14.8901 5.09827C15.071 5.17896 15.2593 5.24253 15.4525 5.29387C15.5136 5.32566 15.5796 5.34033 15.648 5.34277C15.6969 5.34277 15.7458 5.36722 15.7458 5.41612C15.7458 5.46502 15.6969 5.46502 15.6725 5.48947C15.648 5.51392 15.5747 5.56282 15.5258 5.58727L15.4525 5.63617C15.3204 5.73397 15.1811 5.82443 15.0368 5.90512C14.939 5.97847 14.8168 6.05182 14.719 6.12516C14.6652 6.14961 14.6163 6.1814 14.5723 6.22296C14.428 6.32076 14.2886 6.42834 14.1566 6.54081L14.1077 6.58971C13.9757 6.69485 13.8803 6.84154 13.8388 7.00536C13.8143 7.22541 13.9855 7.32321 14.1811 7.42101L14.4011 7.49435C14.6578 7.58971 14.9194 7.67284 15.1835 7.73885C15.3791 7.8122 15.5991 7.8611 15.7947 7.93445C16.1859 8.0567 16.6749 8.37455 16.9194 7.8122C16.9855 7.6924 17.0197 7.55792 17.0172 7.42101C16.9928 7.24741 16.8681 7.10316 16.6994 7.05426C16.5185 6.97357 16.3302 6.91 16.137 6.85866C16.0881 6.85866 16.0637 6.83421 16.0148 6.80976C15.9659 6.78531 15.9414 6.78531 15.917 6.78531C15.8681 6.73641 15.9659 6.68751 15.9903 6.66306C16.093 6.60683 16.1908 6.54081 16.2837 6.46746C16.3864 6.40145 16.4842 6.3281 16.5771 6.24741C16.626 6.22296 16.6749 6.17406 16.7238 6.14961C16.8216 6.07626 16.9439 6.00292 17.0417 5.92957C17.3106 5.70952 17.9219 5.44057 17.7263 5.02492C17.6749 4.92712 17.5991 4.84155 17.5062 4.78042Z" fill="#5F7AFF"/>
<path d="M22.3718 2.45754C22.2789 2.41353 22.1787 2.38174 22.0784 2.35974C21.9562 2.33529 21.8339 2.28639 21.7117 2.26194C21.5161 2.21304 21.3205 2.18859 21.1493 2.13969C20.9293 2.09079 20.6848 2.01744 20.4647 1.96854C20.0246 1.87074 19.4623 1.57734 19.2422 2.21304C19.1836 2.3524 19.1567 2.50155 19.1689 2.65314C19.1933 2.87319 19.3645 2.97098 19.5601 3.01988C19.7606 3.08834 19.9635 3.14458 20.1713 3.19103C20.2447 3.21548 20.318 3.21548 20.3914 3.23993C20.4647 3.26438 20.4892 3.26438 20.4892 3.31328C20.4892 3.36218 20.4403 3.38663 20.4158 3.41108C20.3914 3.43553 20.318 3.48443 20.2691 3.53333C20.2202 3.58223 20.2202 3.55778 20.1958 3.58223C20.0491 3.70448 19.9024 3.80228 19.7557 3.92453L19.4134 4.19348C19.3645 4.21793 19.3156 4.26683 19.2667 4.29128C19.12 4.41352 18.9733 4.53577 18.851 4.65802C18.8266 4.68247 18.8022 4.68247 18.8022 4.70692C18.653 4.82917 18.5577 5.00521 18.5332 5.19592C18.5332 5.44042 18.7288 5.53822 18.9488 5.63602L19.1933 5.70936C19.4745 5.79738 19.7606 5.87073 20.0491 5.92941C20.2691 5.97831 20.5136 6.05166 20.7337 6.10056C21.1738 6.19836 21.7361 6.49176 21.9562 5.85606C22.0149 5.7167 22.0418 5.56756 22.0295 5.41597C22.0051 5.19592 21.8339 5.09812 21.6383 5.04922C21.4305 4.97832 21.2178 4.91964 21.0026 4.87807C20.9537 4.87807 20.9048 4.85362 20.8559 4.85362C20.807 4.85362 20.7581 4.85362 20.7337 4.82917C20.7092 4.80472 20.7826 4.73137 20.807 4.70692C20.9048 4.63357 21.0026 4.56022 21.1249 4.46242L21.4427 4.21793C21.4965 4.17147 21.5528 4.12991 21.6139 4.09568C21.7337 4.01255 21.8462 3.92208 21.9562 3.82673C22.2251 3.55778 22.8853 3.23993 22.6163 2.77539C22.5845 2.63847 22.4941 2.52355 22.3718 2.45754Z" fill="#5F7AFF"/>
<path d="M28.8508 1.69946C28.7579 1.54298 28.6234 1.41339 28.4596 1.33271C28.3324 1.28137 28.2029 1.2398 28.0684 1.21046C27.9095 1.15912 27.7457 1.11755 27.5794 1.08821C27.3349 1.01486 27.0659 0.965963 26.8215 0.917063C26.5281 0.843713 26.2102 0.745914 25.9168 0.672565C25.33 0.525866 24.5965 0.134669 24.2787 0.990412C24.198 1.17623 24.1662 1.37672 24.1809 1.57721C24.2249 1.83638 24.4351 2.03442 24.6943 2.0662C24.9682 2.15422 25.2444 2.22757 25.5256 2.28625C25.6234 2.3107 25.7212 2.33515 25.7946 2.3596C25.8679 2.38405 25.9413 2.38405 25.9413 2.4574C25.9315 2.51119 25.8948 2.55765 25.8435 2.57965C25.7701 2.62855 25.7212 2.67745 25.6479 2.72635C25.621 2.75569 25.5867 2.78258 25.5501 2.7997C25.3545 2.9464 25.1589 3.0931 24.9877 3.2398L24.5476 3.60654C24.4865 3.66033 24.4205 3.70923 24.352 3.75324C24.1564 3.89994 23.9853 4.07109 23.7897 4.24224L23.7163 4.31559C23.5207 4.47207 23.396 4.7019 23.374 4.95128C23.374 5.26913 23.643 5.41583 23.9364 5.53808C24.0391 5.58209 24.1442 5.61387 24.2542 5.63588H24.2787C24.6454 5.75813 25.0366 5.83148 25.4278 5.92928L26.3325 6.14932C26.9192 6.29602 27.6772 6.68722 27.9706 5.83148C28.0513 5.64566 28.0831 5.44517 28.0684 5.24468C28.0244 4.98551 27.8141 4.78747 27.5549 4.75568C27.286 4.653 27.0073 4.56987 26.7237 4.51119C26.6503 4.48674 26.6014 4.48674 26.5281 4.46229C26.4743 4.46229 26.4254 4.44517 26.3814 4.41339C26.308 4.34004 26.4303 4.26669 26.4792 4.24224C26.6234 4.14444 26.7628 4.03686 26.8948 3.92439C27.0415 3.80214 27.1882 3.70434 27.3104 3.58209C27.3887 3.53319 27.4645 3.47451 27.5305 3.41094C27.687 3.30337 27.8361 3.17867 27.9706 3.0442C28.3373 2.72635 29.1931 2.28625 28.8508 1.69946Z" fill="#5F7AFF"/>
<path d="M12.2493 23.7779C11.3129 23.7608 10.5672 22.9857 10.5843 22.0493C10.5892 21.7339 10.6845 21.4258 10.8557 21.1618C11.6136 19.9882 12.8117 19.377 14.2786 19.377C15.7456 19.377 16.9437 19.9882 17.7016 21.1618C18.0415 21.6752 18.0684 22.3329 17.775 22.8733C17.484 23.4161 16.9241 23.7633 16.308 23.7779C16.1148 23.7828 15.9241 23.751 15.7456 23.6801C15.2737 23.5163 14.7774 23.4332 14.2786 23.4356C13.7799 23.4307 13.2835 23.5139 12.8117 23.6801C12.6307 23.7461 12.44 23.7804 12.2493 23.7779Z" fill="#422B0D"/>
<defs>
<radialGradient id="paint0_radial_635_7590" cx="0" cy="0" r="1" gradientUnits="userSpaceOnUse" gradientTransform="translate(14.1809 14.8774) scale(13.9265 13.9265)">
<stop offset="0.5" stop-color="#FDE030"/>
<stop offset="0.92" stop-color="#F7C02B"/>
<stop offset="1" stop-color="#F4A223"/>
</radialGradient>
</defs>
</svg>
