<svg width="29" height="29" viewBox="0 0 29 29" fill="none" xmlns="http://www.w3.org/2000/svg">
<path d="M14.4645 28.441C7.50659 28.441 0 24.0767 0 14.5003C0 4.92384 7.50659 0.55957 14.4645 0.55957C18.33 0.55957 21.8963 1.83144 24.5398 4.15074C27.4078 6.69448 28.929 10.2857 28.929 14.5003C28.929 18.7149 27.4078 22.2812 24.5398 24.8249C21.8963 27.1442 18.3051 28.441 14.4645 28.441Z" fill="url(#paint0_radial_635_7548)"/>
<path d="M9.57665 9.02344C8.53171 9.02344 7.58154 9.90627 7.58154 11.3727C7.58154 12.8391 8.53171 13.7194 9.57665 13.7194C10.6241 13.7194 11.5718 12.8366 11.5718 11.3727C11.5718 9.90876 10.6341 9.02344 9.57665 9.02344Z" fill="#422B0D"/>
<path d="M9.48897 10.0035C9.13483 9.8339 8.70838 9.98353 8.5363 10.3377C8.40413 10.6145 8.46398 10.9462 8.68593 11.1606C9.04007 11.3302 9.46652 11.1806 9.6386 10.8265C9.77077 10.5496 9.71092 10.218 9.48897 10.0035Z" fill="#896024"/>
<path d="M19.1528 9.02344C18.1079 9.02344 17.1577 9.90627 17.1577 11.3727C17.1577 12.8391 18.1079 13.7194 19.1528 13.7194C20.1978 13.7194 21.1479 12.8366 21.1479 11.3727C21.1479 9.90876 20.1978 9.02344 19.1528 9.02344Z" fill="#422B0D"/>
<path d="M19.0534 10.0035C18.6993 9.8339 18.2728 9.98353 18.1008 10.3377C17.9686 10.6145 18.0284 10.9462 18.2504 11.1606C18.6045 11.3302 19.031 11.1806 19.2031 10.8265C19.3352 10.5496 19.2754 10.218 19.0534 10.0035Z" fill="#896024"/>
<path d="M14.3147 21.6596C12.0528 21.677 9.89309 20.7269 8.3793 19.046C8.26458 18.9138 8.23715 18.7268 8.30947 18.5672C8.38179 18.4051 8.5414 18.3003 8.71847 18.2979C8.79827 18.2979 8.87808 18.3203 8.94791 18.3602C10.15 19.051 12.16 19.9089 14.3147 19.9089H14.3497C16.5019 19.9089 18.5144 19.051 19.714 18.3602C19.7838 18.3203 19.8636 18.2979 19.9434 18.2979C20.1205 18.3003 20.2801 18.4051 20.3524 18.5672C20.4272 18.7268 20.3998 18.9138 20.2826 19.046C18.7688 20.7269 16.6041 21.6795 14.3422 21.6596" fill="#422B0D"/>
<path d="M26.4077 6.21289C27.7369 8.35762 28.4302 10.9113 28.4302 13.7519C28.4302 17.9665 26.909 21.5327 24.041 24.0765C21.3975 26.3958 17.8063 27.6926 13.9657 27.6926C9.46177 27.6926 4.73836 25.8596 1.9502 21.9716C4.63361 26.3758 9.68123 28.4407 14.4645 28.4407C18.3051 28.4407 21.8963 27.1439 24.5398 24.8246C27.4077 22.2809 28.929 18.7146 28.929 14.5C28.929 11.3228 28.0636 8.49977 26.4077 6.21289Z" fill="#EB8F00"/>
<defs>
<radialGradient id="paint0_radial_635_7548" cx="0" cy="0" r="1" gradientUnits="userSpaceOnUse" gradientTransform="translate(14.4645 14.5003) scale(14.2051 14.205)">
<stop offset="0.5" stop-color="#FDE030"/>
<stop offset="0.92" stop-color="#F7C02B"/>
<stop offset="1" stop-color="#F4A223"/>
</radialGradient>
</defs>
</svg>
