<svg width="29" height="29" viewBox="0 0 29 29" fill="none" xmlns="http://www.w3.org/2000/svg">
<path d="M14.4146 28.9278C22.3755 28.9278 28.8292 22.4742 28.8292 14.5132C28.8292 6.55226 22.3755 0.0986328 14.4146 0.0986328C6.45363 0.0986328 0 6.55226 0 14.5132C0 22.4742 6.45363 28.9278 14.4146 28.9278Z" fill="url(#paint0_radial_635_7563)"/>
<path opacity="0.2" d="M14.4146 0.821531C21.964 0.821531 28.1063 6.96375 28.1063 14.5132C28.1063 22.0627 21.964 28.2049 14.4146 28.2049C6.86512 28.2049 0.722898 22.0627 0.722898 14.5132C0.722898 6.96375 6.86512 0.821531 14.4146 0.821531ZM14.4146 0.0986328C6.45307 0.0986328 0 6.55411 0 14.5132C0 22.4723 6.45307 28.9278 14.4146 28.9278C22.3761 28.9278 28.8292 22.4747 28.8292 14.5132C28.8292 6.5517 22.3737 0.0986328 14.4146 0.0986328Z" fill="#434343"/>
<path d="M14.4146 24.5519C19.9588 24.5519 24.4533 20.0574 24.4533 14.5133C24.4533 8.96906 19.9588 4.47461 14.4146 4.47461C8.87043 4.47461 4.37598 8.96906 4.37598 14.5133C4.37598 20.0574 8.87043 24.5519 14.4146 24.5519Z" fill="#FEFCE9"/>
<path d="M14.4147 20.9496C17.9693 20.9496 20.8509 18.068 20.8509 14.5134C20.8509 10.9587 17.9693 8.07715 14.4147 8.07715C10.8601 8.07715 7.97852 10.9587 7.97852 14.5134C7.97852 18.068 10.8601 20.9496 14.4147 20.9496Z" fill="url(#paint1_radial_635_7563)"/>
<path d="M14.4145 16.4433C15.4805 16.4433 16.3447 15.5791 16.3447 14.5131C16.3447 13.4472 15.4805 12.583 14.4145 12.583C13.3485 12.583 12.4844 13.4472 12.4844 14.5131C12.4844 15.5791 13.3485 16.4433 14.4145 16.4433Z" fill="#FEFCE9"/>
<path d="M25.5111 3.48879L25.5954 1.45503C25.634 0.539363 24.8195 -0.108835 23.9159 0.117673L22.2388 0.534544C21.6604 0.679123 21.1978 1.14901 21.0653 1.72974L19.2363 9.76354L19.2508 9.75631L25.5159 3.4912L25.5111 3.48879Z" fill="#09BCD4"/>
<path d="M25.5135 3.48897L27.5473 3.40464C28.4629 3.36608 29.1111 4.18055 28.8846 5.08417L28.4678 6.76129C28.3232 7.33961 27.8533 7.80227 27.2726 7.9348L19.2388 9.76373L19.246 9.74927L25.5111 3.48415L25.5135 3.48897Z" fill="#38A4DD"/>
<path d="M14.735 14.7854C14.3976 15.0866 13.9278 14.6168 14.2266 14.2794L23.27 4.29136C23.6676 3.89377 24.3134 3.89377 24.711 4.29136C25.1086 4.68895 25.1086 5.33474 24.711 5.73234L14.735 14.7854Z" fill="#1B87C9"/>
<path opacity="0.2" d="M24.275 0.554198C24.5136 0.554198 24.7304 0.643355 24.8871 0.807212C25.0437 0.968659 25.1232 1.19276 25.1136 1.43613L25.0292 3.46507C25.0244 3.55904 25.0485 3.65061 25.0943 3.72772C25.116 3.76386 25.1401 3.79519 25.169 3.82411C25.2582 3.91567 25.3835 3.9711 25.5136 3.9711H25.5329L27.5618 3.88676H27.6028C27.8726 3.88676 28.1088 3.9976 28.2654 4.1976C28.4293 4.40483 28.4823 4.68676 28.4124 4.96628L27.9955 6.64341C27.8967 7.041 27.5618 7.37113 27.1618 7.46269L20.5015 8.98078C20.4196 9.00006 20.3449 9.03861 20.2846 9.09403L16.2653 12.7471L19.9039 8.72776C19.9593 8.66752 19.9979 8.59282 20.0171 8.51089L21.5376 1.83614C21.6292 1.43613 21.9569 1.10119 22.3569 1.00239L24.034 0.585523C24.1136 0.563836 24.1955 0.554198 24.275 0.554198ZM24.275 0.0722656C24.1569 0.0722656 24.0365 0.0867236 23.916 0.118049L22.2388 0.53492C21.6605 0.6795 21.1979 1.14938 21.0653 1.73011L19.5448 8.40487L14.2267 14.2772C13.993 14.5399 14.2243 14.8796 14.4966 14.8796C14.5761 14.8796 14.6581 14.8507 14.7328 14.7832L20.6099 9.45307L27.2702 7.93499C27.8485 7.80245 28.3208 7.3398 28.4654 6.76148L28.8823 5.08436C29.1016 4.20001 28.4871 3.40483 27.6052 3.40483C27.5859 3.40483 27.5642 3.40483 27.5425 3.40723L25.5136 3.49157H25.5088V3.48675L25.5931 1.45782C25.6268 0.662632 25.0244 0.0722656 24.275 0.0722656Z" fill="#434343"/>
<defs>
<radialGradient id="paint0_radial_635_7563" cx="0" cy="0" r="1" gradientUnits="userSpaceOnUse" gradientTransform="translate(10.2953 7.75726) scale(14.9837)">
<stop offset="0.4707" stop-color="#EF5451"/>
<stop offset="0.8338" stop-color="#E53A35"/>
</radialGradient>
<radialGradient id="paint1_radial_635_7563" cx="0" cy="0" r="1" gradientUnits="userSpaceOnUse" gradientTransform="translate(13.1709 12.028) scale(7.38609 7.38609)">
<stop offset="0.4707" stop-color="#EF5451"/>
<stop offset="0.8338" stop-color="#E53A35"/>
</radialGradient>
</defs>
</svg>
