<svg width="393" height="745" viewBox="0 0 393 745" fill="none" xmlns="http://www.w3.org/2000/svg">
<path d="M357.982 0C399.413 0 433 35.3695 433 79C433 109.663 416.41 136.245 392.168 149.338V755H-0.961914V152.375C-17.024 146.241 -28.5 130.033 -28.5 111C-28.5 86.6995 -9.79328 67 13.2822 67C28.8371 67.0001 42.405 75.9524 49.5977 89.2305C56.1245 85.8799 63.4574 84 71.207 84C75.7658 84 80.1801 84.6513 84.3711 85.8691C97.125 67.1756 117.95 55 141.477 55C154.373 55 166.458 58.6594 176.847 65.0449C183.094 51.9707 195.95 43.0002 210.796 43C221.778 43 231.671 47.9104 238.605 55.7578C248.052 40.833 264.181 31 282.49 31C287.492 31 292.331 31.7335 296.916 33.1045C310.522 13.063 332.804 3.16701e-05 357.982 0ZM235.913 113H236.174C236.146 112.946 236.117 112.892 236.089 112.838C236.031 112.893 235.971 112.946 235.913 113Z" fill="url(#paint0_linear_457_9984)" fill-opacity="0.1"/>
<defs>
<linearGradient id="paint0_linear_457_9984" x1="195.603" y1="32" x2="195.603" y2="545.5" gradientUnits="userSpaceOnUse">
<stop stop-color="#9737FF"/>
<stop offset="1" stop-color="white" stop-opacity="0"/>
</linearGradient>
</defs>
</svg>
